<?xml version="1.0" standalone="no"?>
<!DOCTYPE svg PUBLIC "-//W3C//DTD SVG 1.1//EN" "http://www.w3.org/Graphics/SVG/1.1/DTD/svg11.dtd">
<svg width="59mm" height="69mm" viewBox="0 -69 59 69" xmlns="http://www.w3.org/2000/svg" version="1.1">
<title>OpenSCAD Model</title>
<path d="
M 59,-69 L 54,-61.5 L 59,-54 z
M 5,-61.5 L 0,-69 L 0,-54 z
M 11,-69 L 6,-61.5 L 11,-54 z
M 17,-61.5 L 12,-69 L 12,-54 z
M 23,-69 L 18,-61.5 L 23,-54 z
M 29,-61.5 L 24,-69 L 24,-54 z
M 35,-69 L 30,-61.5 L 35,-54 z
M 41,-61.5 L 36,-69 L 36,-54 z
M 47,-69 L 42,-61.5 L 47,-54 z
M 53,-61.5 L 48,-69 L 48,-54 z
M 5,-60 L 0,-52.5 L 5,-45 z
M 59,-52.5 L 54,-60 L 54,-45 z
M 53,-60 L 48,-52.5 L 53,-45 z
M 47,-52.5 L 42,-60 L 42,-45 z
M 41,-60 L 36,-52.5 L 41,-45 z
M 35,-52.5 L 30,-60 L 30,-45 z
M 29,-60 L 24,-52.5 L 29,-45 z
M 23,-52.5 L 18,-60 L 18,-45 z
M 17,-60 L 12,-52.5 L 17,-45 z
M 11,-52.5 L 6,-60 L 6,-45 z
M 11,-51 L 6,-43.5 L 11,-36 z
M 17,-43.5 L 12,-51 L 12,-36 z
M 23,-51 L 18,-43.5 L 23,-36 z
M 29,-43.5 L 24,-51 L 24,-36 z
M 35,-51 L 30,-43.5 L 35,-36 z
M 41,-43.5 L 36,-51 L 36,-36 z
M 47,-51 L 42,-43.5 L 47,-36 z
M 53,-43.5 L 48,-51 L 48,-36 z
M 59,-51 L 54,-43.5 L 59,-36 z
M 5,-43.5 L 0,-51 L 0,-36 z
M 59,-34.5 L 54,-42 L 54,-27 z
M 11,-34.5 L 6,-42 L 6,-27 z
M 17,-42 L 12,-34.5 L 17,-27 z
M 23,-34.5 L 18,-42 L 18,-27 z
M 29,-42 L 24,-34.5 L 29,-27 z
M 35,-34.5 L 30,-42 L 30,-27 z
M 41,-42 L 36,-34.5 L 41,-27 z
M 47,-34.5 L 42,-42 L 42,-27 z
M 53,-42 L 48,-34.5 L 53,-27 z
M 5,-42 L 0,-34.5 L 5,-27 z
M 35,-33 L 30,-25.5 L 35,-18 z
M 17,-25.5 L 12,-33 L 12,-18 z
M 5,-25.5 L 0,-33 L 0,-18 z
M 59,-33 L 54,-25.5 L 59,-18 z
M 53,-25.5 L 48,-33 L 48,-18 z
M 47,-33 L 42,-25.5 L 47,-18 z
M 41,-25.5 L 36,-33 L 36,-18 z
M 11,-33 L 6,-25.5 L 11,-18 z
M 29,-25.5 L 24,-33 L 24,-18 z
M 23,-33 L 18,-25.5 L 23,-18 z
M 59,-16.5 L 54,-24 L 54,-9 z
M 53,-24 L 48,-16.5 L 53,-9 z
M 47,-16.5 L 42,-24 L 42,-9 z
M 41,-24 L 36,-16.5 L 41,-9 z
M 35,-16.5 L 30,-24 L 30,-9 z
M 29,-24 L 24,-16.5 L 29,-9 z
M 23,-16.5 L 18,-24 L 18,-9 z
M 17,-24 L 12,-16.5 L 17,-9 z
M 11,-16.5 L 6,-24 L 6,-9 z
M 5,-24 L 0,-16.5 L 5,-9 z
M 59,-15 L 54,-7.5 L 59,-0 z
M 5,-7.5 L 0,-15 L 0,-0 z
M 53,-7.5 L 48,-15 L 48,-0 z
M 47,-15 L 42,-7.5 L 47,-0 z
M 41,-7.5 L 36,-15 L 36,-0 z
M 35,-15 L 30,-7.5 L 35,-0 z
M 29,-7.5 L 24,-15 L 24,-0 z
M 23,-15 L 18,-7.5 L 23,-0 z
M 17,-7.5 L 12,-15 L 12,-0 z
M 11,-15 L 6,-7.5 L 11,-0 z
" stroke="black" fill="lightgray" stroke-width="0.5"/>
</svg>
